{"title":"Sherlock.Holmes.2009.720p.BRRip.x264.aac.mp4.anoXmous","uid":6892245,"size":733518638,"categoryP":"video","categoryS":"hd___movies","magnet":"?xt=urn:btih:753fdb57bb6d97d835559d0819c0e289d8bb7f55&amp;dn=Sherlock.Holmes.2009.720p.BRRip.x264.aac.mp4.anoXmous&amp;tr=udp%3A%2F%2Ftracker.openbittorrent.com%3A80&amp;tr=udp%3A%2F%2Fopen.demonii.com%3A1337&amp;tr=udp%3A%2F%2Ftracker.coppersurfer.tk%3A6969&amp;tr=udp%3A%2F%2Fexodus.desync.com%3A6969","seeders":1,"leechers":0,"uploader":"anoXmous","files":-1,"time":1324058783,"description":"Sherlock.Holmes.2009.720p.BRRip.x264.aac.mp4.anoXmous\n\nFormat                           : MPEG-4\nFormat profile                   : Base Media\nCodec ID                         : isom\nFile size                        : 699 MiB\nDuration                         : 2h 8mn\nOverall bit rate mode            : Variable\nOverall bit rate                 : 761 Kbps\n\n\nVideo\nID                               : 1\nFormat                           : AVC\nFormat/Info                      : Advanced Video Codec\nFormat profile                   : &lt;a class=&quot;__cf_email__&quot; href=&quot;/cdn-cgi/l/email-protection&quot; data-cfemail=&quot;7b33121c133b374f554a&quot;&gt;[email&amp;#160;protected]&lt;/a&gt;&lt;script cf-hash='f9e31' type=&quot;text/javascript&quot;&gt;\n/* &lt;![CDATA[ */!function(){try{var t=&quot;currentScript&quot;in document?document.currentScript:function(){for(var t=document.getElementsByTagName(&quot;script&quot;),e=t.length;e--;)if(t[e].getAttribute(&quot;cf-hash&quot;))return t[e]}();if(t&amp;&amp;t.previousSibling){var e,r,n,i,c=t.previousSibling,a=c.getAttribute(&quot;data-cfemail&quot;);if(a){for(e=&quot;&quot;,r=parseInt(a.substr(0,2),16),n=2;a.length-n;n+=2)i=parseInt(a.substr(n,2),16)^r,e+=String.fromCharCode(i);e=document.createTextNode(e),c.parentNode.replaceChild(e,c)}}}catch(u){}}();/* ]]&gt; */&lt;/script&gt;\nFormat settings, CABAC           : Yes\nFormat settings, ReFrames        : 4 frames\nCodec ID                         : avc1\nCodec ID/Info                    : Advanced Video Coding\nDuration                         : 2h 8mn\nBit rate                         : 688 Kbps\nMaximum bit rate                 : 5 328 Kbps\nWidth                            : 1 280 pixels\nHeight                           : 720 pixels\nDisplay aspect ratio             : 16:9\nFrame rate mode                  : Constant\nFrame rate                       : 23.976 fps\nColor space                      : YUV\nChroma subsampling               : 4:2:0\nBit depth                        : 8 bits\nScan type                        : Progressive\nBits/(Pixel*Frame)               : 0.031\nStream size                      : 632 MiB (90%)\nWriting library                  : x264 core 120 r2120 0c7dab9\n\nAudio\nID                               : 2\nFormat                           : AAC\nFormat/Info                      : Advanced Audio Codec\nFormat profile                   : LC\nCodec ID                         : 40\nDuration                         : 2h 8mn\nBit rate mode                    : Variable\nBit rate                         : 72.0 Kbps\nMaximum bit rate                 : 94.4 Kbps\nChannel(s)                       : 2 channels\nChannel positions                : Front: L R\nSampling rate                    : 48.0 KHz \nCompression mode                 : Lossy\nStream size                      : 64.9 MiB (9%)\nLanguage                         : English\n\n                              SUB:\nSherlock.Holmes.2009.720p.BRRip.x264.aac.mp4.anoXmous_eng.srt\nSherlock.Holmes.2009.720p.BRRip.x264.aac.mp4.anoXmous_swe.srt\n\n        &lt;a href=&quot; http://www.imdb.com/title/tt0988045/&quot; rel=&quot;nofollow&quot; target=&quot;_NEW&quot;&gt; http://www.imdb.com/title/tt0988045/&lt;/a&gt;\n\n +++++++ This work very fine with PSP and XBOX :) +++++++++","torrent":{"xt":"urn:btih:753fdb57bb6d97d835559d0819c0e289d8bb7f55","amp;dn":"Sherlock.Holmes.2009.720p.BRRip.x264.aac.mp4.anoXmous","amp;tr":["udp%3A%2F%2Ftracker.openbittorrent.com%3A80","udp%3A%2F%2Fopen.demonii.com%3A1337","udp%3A%2F%2Ftracker.coppersurfer.tk%3A6969","udp%3A%2F%2Fexodus.desync.com%3A6969"],"infoHash":"753fdb57bb6d97d835559d0819c0e289d8bb7f55","infoHashBuffer":{"type":"Buffer","data":[117,63,219,87,187,109,151,216,53,85,157,8,25,192,226,137,216,187,127,85]},"announce":[],"urlList":[]}}